<?xml version="1.0" encoding="UTF-8" standalone="no"?>
<svg
   xmlns:dc="http://purl.org/dc/elements/1.1/"
   xmlns:cc="http://creativecommons.org/ns#"
   xmlns:rdf="http://www.w3.org/1999/02/22-rdf-syntax-ns#"
   xmlns:svg="http://www.w3.org/2000/svg"
   xmlns="http://www.w3.org/2000/svg"
   xmlns:sodipodi="http://sodipodi.sourceforge.net/DTD/sodipodi-0.dtd"
   xmlns:inkscape="http://www.inkscape.org/namespaces/inkscape"
   width="330"
   height="132"
   viewBox="0 -132 330 132"
   version="1.1"
   id="svg2"
   inkscape:version="0.91 r13725"
   sodipodi:docname="digits3.svg">
  <metadata
     id="metadata12">
    <rdf:RDF>
      <cc:Work
         rdf:about="">
        <dc:format>image/svg+xml</dc:format>
        <dc:type
           rdf:resource="http://purl.org/dc/dcmitype/StillImage" />
        <dc:title>OpenSCAD Model</dc:title>
      </cc:Work>
    </rdf:RDF>
  </metadata>
  <defs
     id="defs10" />
  <sodipodi:namedview
     pagecolor="#ffffff"
     bordercolor="#666666"
     borderopacity="1"
     objecttolerance="10"
     gridtolerance="10"
     guidetolerance="10"
     inkscape:pageopacity="0"
     inkscape:pageshadow="2"
     inkscape:window-width="1920"
     inkscape:window-height="1017"
     id="namedview8"
     showgrid="false"
     inkscape:zoom="2.79"
     inkscape:cx="134.57661"
     inkscape:cy="66"
     inkscape:window-x="-8"
     inkscape:window-y="-8"
     inkscape:window-maximized="1"
     inkscape:current-layer="svg2" />
  <title
     id="title4">OpenSCAD Model</title>
  <path
     d=" M 66.3333,-74 L 82,-74 L 82,-69 L 87,-69 L 87,-74 L 87.1884,-74.0059  L 87.376,-74.0237 L 87.5621,-74.0531 L 87.7461,-74.0943 L 87.927,-74.1468 L 88.1044,-74.2107 L 88.2773,-74.2855  L 88.4453,-74.3711 L 88.6075,-74.467 L 88.7634,-74.573 L 88.9123,-74.6885 L 89.0536,-74.8131 L 89.1869,-74.9464  L 89.3115,-75.0877 L 89.427,-75.2366 L 89.533,-75.3925 L 89.6289,-75.5547 L 89.7145,-75.7227 L 89.7893,-75.8956  L 89.8532,-76.073 L 89.9057,-76.2539 L 89.9469,-76.4379 L 89.9763,-76.624 L 89.9941,-76.8116 L 90,-77  L 90,-129 L 89.9941,-129.188 L 89.9763,-129.376 L 89.9469,-129.562 L 89.9057,-129.746 L 89.8532,-129.927  L 89.7893,-130.104 L 89.7145,-130.277 L 89.6289,-130.445 L 89.533,-130.607 L 89.427,-130.763 L 89.3115,-130.912  L 89.1869,-131.054 L 89.0536,-131.187 L 88.9123,-131.312 L 88.7634,-131.427 L 88.6075,-131.533 L 88.4453,-131.629  L 88.2773,-131.714 L 88.1044,-131.789 L 87.927,-131.853 L 87.7461,-131.906 L 87.5621,-131.947 L 87.376,-131.976  L 87.1884,-131.994 L 87,-132 L 51,-132 L 50.8116,-131.994 L 50.624,-131.976 L 50.4379,-131.947  L 50.2539,-131.906 L 50.0729,-131.853 L 49.8956,-131.789 L 49.7227,-131.714 L 49.5547,-131.629 L 49.3925,-131.533  L 49.2366,-131.427 L 49.0877,-131.312 L 48.9464,-131.187 L 48.8131,-131.054 L 48.6885,-130.912 L 48.5729,-130.763  L 48.467,-130.607 L 48.3711,-130.445 L 48.2855,-130.277 L 48.2107,-130.104 L 48.1468,-129.927 L 48.0942,-129.746  L 48.0531,-129.562 L 48.0237,-129.376 L 48.0059,-129.188 L 48,-129 L 48,-77 L 48.0059,-76.8116  L 48.0237,-76.624 L 48.0531,-76.4379 L 48.0942,-76.2539 L 48.1468,-76.073 L 48.2107,-75.8956 L 48.2855,-75.7227  L 48.3711,-75.5547 L 48.467,-75.3925 L 48.5729,-75.2366 L 48.6885,-75.0877 L 48.8131,-74.9464 L 48.9464,-74.8131  L 49.0877,-74.6885 L 49.2366,-74.573 L 49.3925,-74.467 L 49.5547,-74.3711 L 49.7227,-74.2855 L 49.8956,-74.2107  L 50.0729,-74.1468 L 50.2539,-74.0943 L 50.4379,-74.0531 L 50.624,-74.0237 L 50.8116,-74.0059 L 51,-74  L 61.3333,-74 L 61.3333,-69 L 66.3333,-69 z M 210.333,-69 L 210.333,-74 L 226,-74 L 226,-69 L 231,-69 L 231,-74  L 231.188,-74.0059 L 231.376,-74.0237 L 231.562,-74.0531 L 231.746,-74.0943 L 231.927,-74.1468 L 232.104,-74.2107  L 232.277,-74.2855 L 232.445,-74.3711 L 232.607,-74.467 L 232.763,-74.573 L 232.912,-74.6885 L 233.054,-74.8131  L 233.187,-74.9464 L 233.312,-75.0877 L 233.427,-75.2366 L 233.533,-75.3925 L 233.629,-75.5547 L 233.714,-75.7227  L 233.789,-75.8956 L 233.853,-76.073 L 233.906,-76.2539 L 233.947,-76.4379 L 233.976,-76.624 L 233.994,-76.8116  L 234,-77 L 234,-129 L 233.994,-129.188 L 233.976,-129.376 L 233.947,-129.562 L 233.906,-129.746  L 233.853,-129.927 L 233.789,-130.104 L 233.714,-130.277 L 233.629,-130.445 L 233.533,-130.607 L 233.427,-130.763  L 233.312,-130.912 L 233.187,-131.054 L 233.054,-131.187 L 232.912,-131.312 L 232.763,-131.427 L 232.607,-131.533  L 232.445,-131.629 L 232.277,-131.714 L 232.104,-131.789 L 231.927,-131.853 L 231.746,-131.906 L 231.562,-131.947  L 231.376,-131.976 L 231.188,-131.994 L 231,-132 L 195,-132 L 194.812,-131.994 L 194.624,-131.976  L 194.438,-131.947 L 194.254,-131.906 L 194.073,-131.853 L 193.896,-131.789 L 193.723,-131.714 L 193.555,-131.629  L 193.393,-131.533 L 193.237,-131.427 L 193.088,-131.312 L 192.946,-131.187 L 192.813,-131.054 L 192.688,-130.912  L 192.573,-130.763 L 192.467,-130.607 L 192.371,-130.445 L 192.286,-130.277 L 192.211,-130.104 L 192.147,-129.927  L 192.094,-129.746 L 192.053,-129.562 L 192.024,-129.376 L 192.006,-129.188 L 192,-129 L 192,-77  L 192.006,-76.8116 L 192.024,-76.624 L 192.053,-76.4379 L 192.094,-76.2539 L 192.147,-76.073 L 192.211,-75.8956  L 192.286,-75.7227 L 192.371,-75.5547 L 192.467,-75.3925 L 192.573,-75.2366 L 192.688,-75.0877 L 192.813,-74.9464  L 192.946,-74.8131 L 193.088,-74.6885 L 193.237,-74.573 L 193.393,-74.467 L 193.555,-74.3711 L 193.723,-74.2855  L 193.896,-74.2107 L 194.073,-74.1468 L 194.254,-74.0943 L 194.438,-74.0531 L 194.624,-74.0237 L 194.812,-74.0059  L 195,-74 L 205.333,-74 L 205.333,-69 z M 327,-74 L 327.188,-74.0059 L 327.376,-74.0237 L 327.562,-74.0531 L 327.746,-74.0943 L 327.927,-74.1468  L 328.104,-74.2107 L 328.277,-74.2855 L 328.445,-74.3711 L 328.607,-74.467 L 328.763,-74.573 L 328.912,-74.6885  L 329.054,-74.8131 L 329.187,-74.9464 L 329.312,-75.0877 L 329.427,-75.2366 L 329.533,-75.3925 L 329.629,-75.5547  L 329.714,-75.7227 L 329.789,-75.8956 L 329.853,-76.073 L 329.906,-76.2539 L 329.947,-76.4379 L 329.976,-76.624  L 329.994,-76.8116 L 330,-77 L 330,-129 L 329.994,-129.188 L 329.976,-129.376 L 329.947,-129.562  L 329.906,-129.746 L 329.853,-129.927 L 329.789,-130.104 L 329.714,-130.277 L 329.629,-130.445 L 329.533,-130.607  L 329.427,-130.763 L 329.312,-130.912 L 329.187,-131.054 L 329.054,-131.187 L 328.912,-131.312 L 328.763,-131.427  L 328.607,-131.533 L 328.445,-131.629 L 328.277,-131.714 L 328.104,-131.789 L 327.927,-131.853 L 327.746,-131.906  L 327.562,-131.947 L 327.376,-131.976 L 327.188,-131.994 L 327,-132 L 315,-132 L 314.812,-131.994  L 314.624,-131.976 L 314.438,-131.947 L 314.254,-131.906 L 314.073,-131.853 L 313.896,-131.789 L 313.723,-131.714  L 313.555,-131.629 L 313.393,-131.533 L 313.237,-131.427 L 313.088,-131.312 L 312.946,-131.187 L 312.813,-131.054  L 312.688,-130.912 L 312.573,-130.763 L 312.467,-130.607 L 312.371,-130.445 L 312.286,-130.277 L 312.211,-130.104  L 312.147,-129.927 L 312.094,-129.746 L 312.053,-129.562 L 312.024,-129.376 L 312.006,-129.188 L 312,-129  L 312,-77 L 312.006,-76.8116 L 312.024,-76.624 L 312.053,-76.4379 L 312.094,-76.2539 L 312.147,-76.073  L 312.211,-75.8956 L 312.286,-75.7227 L 312.371,-75.5547 L 312.467,-75.3925 L 312.573,-75.2366 L 312.688,-75.0877  L 312.813,-74.9464 L 312.946,-74.8131 L 313.088,-74.6885 L 313.237,-74.573 L 313.393,-74.467 L 313.555,-74.3711  L 313.723,-74.2855 L 313.896,-74.2107 L 314.073,-74.1468 L 314.254,-74.0943 L 314.438,-74.0531 L 314.624,-74.0237  L 314.812,-74.0059 L 315,-74 L 322,-74 L 322,-69 L 327,-69 z M 18.3333,-69 L 18.3333,-74 L 34,-74 L 34,-69 L 39,-69 L 39,-74  L 39.1884,-74.0059 L 39.376,-74.0237 L 39.5621,-74.0531 L 39.7461,-74.0943 L 39.927,-74.1468 L 40.1044,-74.2107  L 40.2773,-74.2855 L 40.4453,-74.3711 L 40.6075,-74.467 L 40.7634,-74.573 L 40.9123,-74.6885 L 41.0536,-74.8131  L 41.1869,-74.9464 L 41.3115,-75.0877 L 41.427,-75.2366 L 41.533,-75.3925 L 41.6289,-75.5547 L 41.7145,-75.7227  L 41.7893,-75.8956 L 41.8532,-76.073 L 41.9057,-76.2539 L 41.9469,-76.4379 L 41.9763,-76.624 L 41.9941,-76.8116  L 42,-77 L 42,-129 L 41.9941,-129.188 L 41.9763,-129.376 L 41.9469,-129.562 L 41.9057,-129.746  L 41.8532,-129.927 L 41.7893,-130.104 L 41.7145,-130.277 L 41.6289,-130.445 L 41.533,-130.607 L 41.427,-130.763  L 41.3115,-130.912 L 41.1869,-131.054 L 41.0536,-131.187 L 40.9123,-131.312 L 40.7634,-131.427 L 40.6075,-131.533  L 40.4453,-131.629 L 40.2773,-131.714 L 40.1044,-131.789 L 39.927,-131.853 L 39.7461,-131.906 L 39.5621,-131.947  L 39.376,-131.976 L 39.1884,-131.994 L 39,-132 L 3,-132 L 2.81161,-131.994 L 2.62399,-131.976  L 2.43785,-131.947 L 2.25392,-131.906 L 2.07294,-131.853 L 1.89561,-131.789 L 1.72266,-131.714 L 1.55473,-131.629  L 1.39252,-131.533 L 1.23663,-131.427 L 1.08772,-131.312 L 0.94635,-131.187 L 0.81308,-131.054 L 0.688446,-130.912  L 0.572937,-130.763 L 0.46701,-130.607 L 0.371078,-130.445 L 0.285507,-130.277 L 0.210663,-130.104 L 0.14682,-129.927  L 0.0942383,-129.746 L 0.0531311,-129.562 L 0.0236511,-129.376 L 0.00590515,-129.188 L 0,-129 L 0,-77  L 0.00590515,-76.8116 L 0.0236511,-76.624 L 0.0531311,-76.4379 L 0.0942383,-76.2539 L 0.14682,-76.073 L 0.210663,-75.8956  L 0.285507,-75.7227 L 0.371078,-75.5547 L 0.46701,-75.3925 L 0.572937,-75.2366 L 0.688446,-75.0877 L 0.81308,-74.9464  L 0.94635,-74.8131 L 1.08772,-74.6885 L 1.23663,-74.573 L 1.39252,-74.467 L 1.55473,-74.3711 L 1.72266,-74.2855  L 1.89561,-74.2107 L 2.07294,-74.1468 L 2.25392,-74.0943 L 2.43785,-74.0531 L 2.62399,-74.0237 L 2.81161,-74.0059  L 2.99998,-74 L 13.3333,-74 L 13.3333,-69 z M 258.333,-74 L 274,-74 L 274,-69 L 279,-69 L 279,-74 L 279.188,-74.0059  L 279.376,-74.0237 L 279.562,-74.0531 L 279.746,-74.0943 L 279.927,-74.1468 L 280.104,-74.2107 L 280.277,-74.2855  L 280.445,-74.3711 L 280.607,-74.467 L 280.763,-74.573 L 280.912,-74.6885 L 281.054,-74.8131 L 281.187,-74.9464  L 281.312,-75.0877 L 281.427,-75.2366 L 281.533,-75.3925 L 281.629,-75.5547 L 281.714,-75.7227 L 281.789,-75.8956  L 281.853,-76.073 L 281.906,-76.2539 L 281.947,-76.4379 L 281.976,-76.624 L 281.994,-76.8116 L 282,-77  L 282,-129 L 281.994,-129.188 L 281.976,-129.376 L 281.947,-129.562 L 281.906,-129.746 L 281.853,-129.927  L 281.789,-130.104 L 281.714,-130.277 L 281.629,-130.445 L 281.533,-130.607 L 281.427,-130.763 L 281.312,-130.912  L 281.187,-131.054 L 281.054,-131.187 L 280.912,-131.312 L 280.763,-131.427 L 280.607,-131.533 L 280.445,-131.629  L 280.277,-131.714 L 280.104,-131.789 L 279.927,-131.853 L 279.746,-131.906 L 279.562,-131.947 L 279.376,-131.976  L 279.188,-131.994 L 279,-132 L 243,-132 L 242.812,-131.994 L 242.624,-131.976 L 242.438,-131.947  L 242.254,-131.906 L 242.073,-131.853 L 241.896,-131.789 L 241.723,-131.714 L 241.555,-131.629 L 241.393,-131.533  L 241.237,-131.427 L 241.088,-131.312 L 240.946,-131.187 L 240.813,-131.054 L 240.688,-130.912 L 240.573,-130.763  L 240.467,-130.607 L 240.371,-130.445 L 240.286,-130.277 L 240.211,-130.104 L 240.147,-129.927 L 240.094,-129.746  L 240.053,-129.562 L 240.024,-129.376 L 240.006,-129.188 L 240,-129 L 240,-77 L 240.006,-76.8116  L 240.024,-76.624 L 240.053,-76.4379 L 240.094,-76.2539 L 240.147,-76.073 L 240.211,-75.8956 L 240.286,-75.7227  L 240.371,-75.5547 L 240.467,-75.3925 L 240.573,-75.2366 L 240.688,-75.0877 L 240.813,-74.9464 L 240.946,-74.8131  L 241.088,-74.6885 L 241.237,-74.573 L 241.393,-74.467 L 241.555,-74.3711 L 241.723,-74.2855 L 241.896,-74.2107  L 242.073,-74.1468 L 242.254,-74.0943 L 242.438,-74.0531 L 242.624,-74.0237 L 242.812,-74.0059 L 243,-74  L 253.333,-74 L 253.333,-69 L 258.333,-69 z M 303,-74 L 303.188,-74.0059 L 303.376,-74.0237 L 303.562,-74.0531 L 303.746,-74.0943 L 303.927,-74.1468  L 304.104,-74.2107 L 304.277,-74.2855 L 304.445,-74.3711 L 304.607,-74.467 L 304.763,-74.573 L 304.912,-74.6885  L 305.054,-74.8131 L 305.187,-74.9464 L 305.312,-75.0877 L 305.427,-75.2366 L 305.533,-75.3925 L 305.629,-75.5547  L 305.714,-75.7227 L 305.789,-75.8956 L 305.853,-76.073 L 305.906,-76.2539 L 305.947,-76.4379 L 305.976,-76.624  L 305.994,-76.8116 L 306,-77 L 306,-129 L 305.994,-129.188 L 305.976,-129.376 L 305.947,-129.562  L 305.906,-129.746 L 305.853,-129.927 L 305.789,-130.104 L 305.714,-130.277 L 305.629,-130.445 L 305.533,-130.607  L 305.427,-130.763 L 305.312,-130.912 L 305.187,-131.054 L 305.054,-131.187 L 304.912,-131.312 L 304.763,-131.427  L 304.607,-131.533 L 304.445,-131.629 L 304.277,-131.714 L 304.104,-131.789 L 303.927,-131.853 L 303.746,-131.906  L 303.562,-131.947 L 303.376,-131.976 L 303.188,-131.994 L 303,-132 L 291,-132 L 290.812,-131.994  L 290.624,-131.976 L 290.438,-131.947 L 290.254,-131.906 L 290.073,-131.853 L 289.896,-131.789 L 289.723,-131.714  L 289.555,-131.629 L 289.393,-131.533 L 289.237,-131.427 L 289.088,-131.312 L 288.946,-131.187 L 288.813,-131.054  L 288.688,-130.912 L 288.573,-130.763 L 288.467,-130.607 L 288.371,-130.445 L 288.286,-130.277 L 288.211,-130.104  L 288.147,-129.927 L 288.094,-129.746 L 288.053,-129.562 L 288.024,-129.376 L 288.006,-129.188 L 288,-129  L 288,-77 L 288.006,-76.8116 L 288.024,-76.624 L 288.053,-76.4379 L 288.094,-76.2539 L 288.147,-76.073  L 288.211,-75.8956 L 288.286,-75.7227 L 288.371,-75.5547 L 288.467,-75.3925 L 288.573,-75.2366 L 288.688,-75.0877  L 288.813,-74.9464 L 288.946,-74.8131 L 289.088,-74.6885 L 289.237,-74.573 L 289.393,-74.467 L 289.555,-74.3711  L 289.723,-74.2855 L 289.896,-74.2107 L 290.073,-74.1468 L 290.254,-74.0943 L 290.438,-74.0531 L 290.624,-74.0237  L 290.812,-74.0059 L 291,-74 L 298,-74 L 298,-69 L 303,-69 z M 162.333,-74 L 178,-74 L 178,-69 L 183,-69 L 183,-74 L 183.188,-74.0059  L 183.376,-74.0237 L 183.562,-74.0531 L 183.746,-74.0943 L 183.927,-74.1468 L 184.104,-74.2107 L 184.277,-74.2855  L 184.445,-74.3711 L 184.607,-74.467 L 184.763,-74.573 L 184.912,-74.6885 L 185.054,-74.8131 L 185.187,-74.9464  L 185.312,-75.0877 L 185.427,-75.2366 L 185.533,-75.3925 L 185.629,-75.5547 L 185.714,-75.7227 L 185.789,-75.8956  L 185.853,-76.073 L 185.906,-76.2539 L 185.947,-76.4379 L 185.976,-76.624 L 185.994,-76.8116 L 186,-77  L 186,-129 L 185.994,-129.188 L 185.976,-129.376 L 185.947,-129.562 L 185.906,-129.746 L 185.853,-129.927  L 185.789,-130.104 L 185.714,-130.277 L 185.629,-130.445 L 185.533,-130.607 L 185.427,-130.763 L 185.312,-130.912  L 185.187,-131.054 L 185.054,-131.187 L 184.912,-131.312 L 184.763,-131.427 L 184.607,-131.533 L 184.445,-131.629  L 184.277,-131.714 L 184.104,-131.789 L 183.927,-131.853 L 183.746,-131.906 L 183.562,-131.947 L 183.376,-131.976  L 183.188,-131.994 L 183,-132 L 147,-132 L 146.812,-131.994 L 146.624,-131.976 L 146.438,-131.947  L 146.254,-131.906 L 146.073,-131.853 L 145.896,-131.789 L 145.723,-131.714 L 145.555,-131.629 L 145.393,-131.533  L 145.237,-131.427 L 145.088,-131.312 L 144.946,-131.187 L 144.813,-131.054 L 144.688,-130.912 L 144.573,-130.763  L 144.467,-130.607 L 144.371,-130.445 L 144.286,-130.277 L 144.211,-130.104 L 144.147,-129.927 L 144.094,-129.746  L 144.053,-129.562 L 144.024,-129.376 L 144.006,-129.188 L 144,-129 L 144,-77 L 144.006,-76.8116  L 144.024,-76.624 L 144.053,-76.4379 L 144.094,-76.2539 L 144.147,-76.073 L 144.211,-75.8956 L 144.286,-75.7227  L 144.371,-75.5547 L 144.467,-75.3925 L 144.573,-75.2366 L 144.688,-75.0877 L 144.813,-74.9464 L 144.946,-74.8131  L 145.088,-74.6885 L 145.237,-74.573 L 145.393,-74.467 L 145.555,-74.3711 L 145.723,-74.2855 L 145.896,-74.2107  L 146.073,-74.1468 L 146.254,-74.0943 L 146.438,-74.0531 L 146.624,-74.0237 L 146.812,-74.0059 L 147,-74  L 157.333,-74 L 157.333,-69 L 162.333,-69 z M 114.333,-74 L 130,-74 L 130,-69 L 135,-69 L 135,-74 L 135.188,-74.0059  L 135.376,-74.0237 L 135.562,-74.0531 L 135.746,-74.0943 L 135.927,-74.1468 L 136.104,-74.2107 L 136.277,-74.2855  L 136.445,-74.3711 L 136.607,-74.467 L 136.763,-74.573 L 136.912,-74.6885 L 137.054,-74.8131 L 137.187,-74.9464  L 137.312,-75.0877 L 137.427,-75.2366 L 137.533,-75.3925 L 137.629,-75.5547 L 137.714,-75.7227 L 137.789,-75.8956  L 137.853,-76.073 L 137.906,-76.2539 L 137.947,-76.4379 L 137.976,-76.624 L 137.994,-76.8116 L 138,-77  L 138,-129 L 137.994,-129.188 L 137.976,-129.376 L 137.947,-129.562 L 137.906,-129.746 L 137.853,-129.927  L 137.789,-130.104 L 137.714,-130.277 L 137.629,-130.445 L 137.533,-130.607 L 137.427,-130.763 L 137.312,-130.912  L 137.187,-131.054 L 137.054,-131.187 L 136.912,-131.312 L 136.763,-131.427 L 136.607,-131.533 L 136.445,-131.629  L 136.277,-131.714 L 136.104,-131.789 L 135.927,-131.853 L 135.746,-131.906 L 135.562,-131.947 L 135.376,-131.976  L 135.188,-131.994 L 135,-132 L 99,-132 L 98.8116,-131.994 L 98.624,-131.976 L 98.4379,-131.947  L 98.2539,-131.906 L 98.073,-131.853 L 97.8956,-131.789 L 97.7227,-131.714 L 97.5547,-131.629 L 97.3925,-131.533  L 97.2366,-131.427 L 97.0877,-131.312 L 96.9464,-131.187 L 96.8131,-131.054 L 96.6885,-130.912 L 96.573,-130.763  L 96.467,-130.607 L 96.3711,-130.445 L 96.2855,-130.277 L 96.2107,-130.104 L 96.1468,-129.927 L 96.0943,-129.746  L 96.0531,-129.562 L 96.0237,-129.376 L 96.0059,-129.188 L 96,-129 L 96,-77 L 96.0059,-76.8116  L 96.0237,-76.624 L 96.0531,-76.4379 L 96.0943,-76.2539 L 96.1468,-76.073 L 96.2107,-75.8956 L 96.2855,-75.7227  L 96.3711,-75.5547 L 96.467,-75.3925 L 96.573,-75.2366 L 96.6885,-75.0877 L 96.8131,-74.9464 L 96.9464,-74.8131  L 97.0877,-74.6885 L 97.2366,-74.573 L 97.3925,-74.467 L 97.5547,-74.3711 L 97.7227,-74.2855 L 97.8956,-74.2107  L 98.073,-74.1468 L 98.2539,-74.0943 L 98.4379,-74.0531 L 98.624,-74.0237 L 98.8116,-74.0059 L 99,-74  L 109.333,-74 L 109.333,-69 L 114.333,-69 z M 104,-5 L 119.667,-5 L 119.667,-0 L 124.667,-0 L 124.667,-5 L 135,-5  L 135.188,-5.00591 L 135.376,-5.02365 L 135.562,-5.05313 L 135.746,-5.09424 L 135.927,-5.14682 L 136.104,-5.21066  L 136.277,-5.28551 L 136.445,-5.37108 L 136.607,-5.46701 L 136.763,-5.57294 L 136.912,-5.68845 L 137.054,-5.81308  L 137.187,-5.94635 L 137.312,-6.08772 L 137.427,-6.23663 L 137.533,-6.39252 L 137.629,-6.55473 L 137.714,-6.72266  L 137.789,-6.89561 L 137.853,-7.07294 L 137.906,-7.25392 L 137.947,-7.43785 L 137.976,-7.62399 L 137.994,-7.81161  L 138,-8 L 138,-60 L 137.994,-60.1884 L 137.976,-60.376 L 137.947,-60.5621 L 137.906,-60.7461  L 137.853,-60.927 L 137.789,-61.1044 L 137.714,-61.2773 L 137.629,-61.4453 L 137.533,-61.6075 L 137.427,-61.7634  L 137.312,-61.9123 L 137.187,-62.0536 L 137.054,-62.1869 L 136.912,-62.3115 L 136.763,-62.427 L 136.607,-62.533  L 136.445,-62.6289 L 136.277,-62.7145 L 136.104,-62.7893 L 135.927,-62.8532 L 135.746,-62.9057 L 135.562,-62.9469  L 135.376,-62.9763 L 135.188,-62.9941 L 135,-63 L 99,-63 L 98.8116,-62.9941 L 98.624,-62.9763  L 98.4379,-62.9469 L 98.2539,-62.9057 L 98.073,-62.8532 L 97.8956,-62.7893 L 97.7227,-62.7145 L 97.5547,-62.6289  L 97.3925,-62.533 L 97.2366,-62.427 L 97.0877,-62.3115 L 96.9464,-62.1869 L 96.8131,-62.0536 L 96.6885,-61.9123  L 96.573,-61.7634 L 96.467,-61.6075 L 96.3711,-61.4453 L 96.2855,-61.2773 L 96.2107,-61.1044 L 96.1468,-60.927  L 96.0943,-60.7461 L 96.0531,-60.5621 L 96.0237,-60.376 L 96.0059,-60.1884 L 96,-60 L 96,-8  L 96.0059,-7.81161 L 96.0237,-7.62399 L 96.0531,-7.43785 L 96.0943,-7.25392 L 96.1468,-7.07294 L 96.2107,-6.89561  L 96.2855,-6.72266 L 96.3711,-6.55473 L 96.467,-6.39252 L 96.573,-6.23663 L 96.6885,-6.08772 L 96.8131,-5.94635  L 96.9464,-5.81308 L 97.0877,-5.68845 L 97.2366,-5.57294 L 97.3925,-5.46701 L 97.5547,-5.37108 L 97.7227,-5.28551  L 97.8956,-5.21066 L 98.073,-5.14682 L 98.2539,-5.09424 L 98.4379,-5.05313 L 98.624,-5.02365 L 98.8116,-5.00591  L 99,-5 L 99,-0 L 104,-0 z M 8,-5 L 23.6667,-5 L 23.6667,-0 L 28.6667,-0 L 28.6667,-5 L 39,-5  L 39.1884,-5.00591 L 39.376,-5.02365 L 39.5621,-5.05313 L 39.7461,-5.09424 L 39.927,-5.14682 L 40.1044,-5.21066  L 40.2773,-5.28551 L 40.4453,-5.37108 L 40.6075,-5.46701 L 40.7634,-5.57294 L 40.9123,-5.68845 L 41.0536,-5.81308  L 41.1869,-5.94635 L 41.3115,-6.08772 L 41.427,-6.23663 L 41.533,-6.39252 L 41.6289,-6.55473 L 41.7145,-6.72266  L 41.7893,-6.89561 L 41.8532,-7.07294 L 41.9057,-7.25392 L 41.9469,-7.43785 L 41.9763,-7.62399 L 41.9941,-7.81161  L 42,-8 L 42,-60 L 41.9941,-60.1884 L 41.9763,-60.376 L 41.9469,-60.5621 L 41.9057,-60.7461  L 41.8532,-60.927 L 41.7893,-61.1044 L 41.7145,-61.2773 L 41.6289,-61.4453 L 41.533,-61.6075 L 41.427,-61.7634  L 41.3115,-61.9123 L 41.1869,-62.0536 L 41.0536,-62.1869 L 40.9123,-62.3115 L 40.7634,-62.427 L 40.6075,-62.533  L 40.4453,-62.6289 L 40.2773,-62.7145 L 40.1044,-62.7893 L 39.927,-62.8532 L 39.7461,-62.9057 L 39.5621,-62.9469  L 39.376,-62.9763 L 39.1884,-62.9941 L 39,-63 L 3,-63 L 2.81161,-62.9941 L 2.62399,-62.9763  L 2.43785,-62.9469 L 2.25392,-62.9057 L 2.07294,-62.8532 L 1.89561,-62.7893 L 1.72266,-62.7145 L 1.55473,-62.6289  L 1.39252,-62.533 L 1.23663,-62.427 L 1.08772,-62.3115 L 0.94635,-62.1869 L 0.81308,-62.0536 L 0.688446,-61.9123  L 0.572937,-61.7634 L 0.46701,-61.6075 L 0.371078,-61.4453 L 0.285507,-61.2773 L 0.210663,-61.1044 L 0.14682,-60.927  L 0.0942383,-60.7461 L 0.0531311,-60.5621 L 0.0236511,-60.376 L 0.00590515,-60.1884 L 0,-60 L 0,-8  L 0.00590515,-7.81161 L 0.0236511,-7.62399 L 0.0531311,-7.43785 L 0.0942383,-7.25392 L 0.14682,-7.07294 L 0.210663,-6.89561  L 0.285507,-6.72266 L 0.371078,-6.55473 L 0.46701,-6.39252 L 0.572937,-6.23663 L 0.688446,-6.08772 L 0.81308,-5.94635  L 0.94635,-5.81308 L 1.08772,-5.68845 L 1.23663,-5.57294 L 1.39252,-5.46701 L 1.55473,-5.37108 L 1.72266,-5.28551  L 1.89561,-5.21066 L 2.07294,-5.14682 L 2.25392,-5.09424 L 2.43785,-5.05313 L 2.62399,-5.02365 L 2.81161,-5.00591  L 3,-5 L 3,-0 L 8,-0 z M 200,-5 L 215.667,-5 L 215.667,-0 L 220.667,-0 L 220.667,-5 L 231,-5  L 231.188,-5.00591 L 231.376,-5.02365 L 231.562,-5.05313 L 231.746,-5.09424 L 231.927,-5.14682 L 232.104,-5.21066  L 232.277,-5.28551 L 232.445,-5.37108 L 232.607,-5.46701 L 232.763,-5.57294 L 232.912,-5.68845 L 233.054,-5.81308  L 233.187,-5.94635 L 233.312,-6.08772 L 233.427,-6.23663 L 233.533,-6.39252 L 233.629,-6.55473 L 233.714,-6.72266  L 233.789,-6.89561 L 233.853,-7.07294 L 233.906,-7.25392 L 233.947,-7.43785 L 233.976,-7.62399 L 233.994,-7.81161  L 234,-8 L 234,-60 L 233.994,-60.1884 L 233.976,-60.376 L 233.947,-60.5621 L 233.906,-60.7461  L 233.853,-60.927 L 233.789,-61.1044 L 233.714,-61.2773 L 233.629,-61.4453 L 233.533,-61.6075 L 233.427,-61.7634  L 233.312,-61.9123 L 233.187,-62.0536 L 233.054,-62.1869 L 232.912,-62.3115 L 232.763,-62.427 L 232.607,-62.533  L 232.445,-62.6289 L 232.277,-62.7145 L 232.104,-62.7893 L 231.927,-62.8532 L 231.746,-62.9057 L 231.562,-62.9469  L 231.376,-62.9763 L 231.188,-62.9941 L 231,-63 L 195,-63 L 194.812,-62.9941 L 194.624,-62.9763  L 194.438,-62.9469 L 194.254,-62.9057 L 194.073,-62.8532 L 193.896,-62.7893 L 193.723,-62.7145 L 193.555,-62.6289  L 193.393,-62.533 L 193.237,-62.427 L 193.088,-62.3115 L 192.946,-62.1869 L 192.813,-62.0536 L 192.688,-61.9123  L 192.573,-61.7634 L 192.467,-61.6075 L 192.371,-61.4453 L 192.286,-61.2773 L 192.211,-61.1044 L 192.147,-60.927  L 192.094,-60.7461 L 192.053,-60.5621 L 192.024,-60.376 L 192.006,-60.1884 L 192,-60 L 192,-8  L 192.006,-7.81161 L 192.024,-7.62399 L 192.053,-7.43785 L 192.094,-7.25392 L 192.147,-7.07294 L 192.211,-6.89561  L 192.286,-6.72266 L 192.371,-6.55473 L 192.467,-6.39252 L 192.573,-6.23663 L 192.688,-6.08772 L 192.813,-5.94635  L 192.946,-5.81308 L 193.088,-5.68845 L 193.237,-5.57294 L 193.393,-5.46701 L 193.555,-5.37108 L 193.723,-5.28551  L 193.896,-5.21066 L 194.073,-5.14682 L 194.254,-5.09424 L 194.438,-5.05313 L 194.624,-5.02365 L 194.812,-5.00591  L 195,-5 L 195,-0 L 200,-0 z M 152,-5 L 167.667,-5 L 167.667,-0 L 172.667,-0 L 172.667,-5 L 183,-5  L 183.188,-5.00591 L 183.376,-5.02365 L 183.562,-5.05313 L 183.746,-5.09424 L 183.927,-5.14682 L 184.104,-5.21066  L 184.277,-5.28551 L 184.445,-5.37108 L 184.607,-5.46701 L 184.763,-5.57294 L 184.912,-5.68845 L 185.054,-5.81308  L 185.187,-5.94635 L 185.312,-6.08772 L 185.427,-6.23663 L 185.533,-6.39252 L 185.629,-6.55473 L 185.714,-6.72266  L 185.789,-6.89561 L 185.853,-7.07294 L 185.906,-7.25392 L 185.947,-7.43785 L 185.976,-7.62399 L 185.994,-7.81161  L 186,-8 L 186,-60 L 185.994,-60.1884 L 185.976,-60.376 L 185.947,-60.5621 L 185.906,-60.7461  L 185.853,-60.927 L 185.789,-61.1044 L 185.714,-61.2773 L 185.629,-61.4453 L 185.533,-61.6075 L 185.427,-61.7634  L 185.312,-61.9123 L 185.187,-62.0536 L 185.054,-62.1869 L 184.912,-62.3115 L 184.763,-62.427 L 184.607,-62.533  L 184.445,-62.6289 L 184.277,-62.7145 L 184.104,-62.7893 L 183.927,-62.8532 L 183.746,-62.9057 L 183.562,-62.9469  L 183.376,-62.9763 L 183.188,-62.9941 L 183,-63 L 147,-63 L 146.812,-62.9941 L 146.624,-62.9763  L 146.438,-62.9469 L 146.254,-62.9057 L 146.073,-62.8532 L 145.896,-62.7893 L 145.723,-62.7145 L 145.555,-62.6289  L 145.393,-62.533 L 145.237,-62.427 L 145.088,-62.3115 L 144.946,-62.1869 L 144.813,-62.0536 L 144.688,-61.9123  L 144.573,-61.7634 L 144.467,-61.6075 L 144.371,-61.4453 L 144.286,-61.2773 L 144.211,-61.1044 L 144.147,-60.927  L 144.094,-60.7461 L 144.053,-60.5621 L 144.024,-60.376 L 144.006,-60.1884 L 144,-60 L 144,-8  L 144.006,-7.81161 L 144.024,-7.62399 L 144.053,-7.43785 L 144.094,-7.25392 L 144.147,-7.07294 L 144.211,-6.89561  L 144.286,-6.72266 L 144.371,-6.55473 L 144.467,-6.39252 L 144.573,-6.23663 L 144.688,-6.08772 L 144.813,-5.94635  L 144.946,-5.81308 L 145.088,-5.68845 L 145.237,-5.57294 L 145.393,-5.46701 L 145.555,-5.37108 L 145.723,-5.28551  L 145.896,-5.21066 L 146.073,-5.14682 L 146.254,-5.09424 L 146.438,-5.05313 L 146.624,-5.02365 L 146.812,-5.00591  L 147,-5 L 147,-0 L 152,-0 z M 56,-5 L 71.6667,-5 L 71.6667,-0 L 76.6667,-0 L 76.6667,-5 L 87,-5  L 87.1884,-5.00591 L 87.376,-5.02365 L 87.5621,-5.05313 L 87.7461,-5.09424 L 87.927,-5.14682 L 88.1044,-5.21066  L 88.2773,-5.28551 L 88.4453,-5.37108 L 88.6075,-5.46701 L 88.7634,-5.57294 L 88.9123,-5.68845 L 89.0536,-5.81308  L 89.1869,-5.94635 L 89.3115,-6.08772 L 89.427,-6.23663 L 89.533,-6.39252 L 89.6289,-6.55473 L 89.7145,-6.72266  L 89.7893,-6.89561 L 89.8532,-7.07294 L 89.9057,-7.25392 L 89.9469,-7.43785 L 89.9763,-7.62399 L 89.9941,-7.81161  L 90,-8 L 90,-60 L 89.9941,-60.1884 L 89.9763,-60.376 L 89.9469,-60.5621 L 89.9057,-60.7461  L 89.8532,-60.927 L 89.7893,-61.1044 L 89.7145,-61.2773 L 89.6289,-61.4453 L 89.533,-61.6075 L 89.427,-61.7634  L 89.3115,-61.9123 L 89.1869,-62.0536 L 89.0536,-62.1869 L 88.9123,-62.3115 L 88.7634,-62.427 L 88.6075,-62.533  L 88.4453,-62.6289 L 88.2773,-62.7145 L 88.1044,-62.7893 L 87.927,-62.8532 L 87.7461,-62.9057 L 87.5621,-62.9469  L 87.376,-62.9763 L 87.1884,-62.9941 L 87,-63 L 51,-63 L 50.8116,-62.9941 L 50.624,-62.9763  L 50.4379,-62.9469 L 50.2539,-62.9057 L 50.0729,-62.8532 L 49.8956,-62.7893 L 49.7227,-62.7145 L 49.5547,-62.6289  L 49.3925,-62.533 L 49.2366,-62.427 L 49.0877,-62.3115 L 48.9464,-62.1869 L 48.8131,-62.0536 L 48.6885,-61.9123  L 48.5729,-61.7634 L 48.467,-61.6075 L 48.3711,-61.4453 L 48.2855,-61.2773 L 48.2107,-61.1044 L 48.1468,-60.927  L 48.0942,-60.7461 L 48.0531,-60.5621 L 48.0237,-60.376 L 48.0059,-60.1884 L 48,-60 L 48,-8  L 48.0059,-7.81161 L 48.0237,-7.62399 L 48.0531,-7.43785 L 48.0942,-7.25392 L 48.1468,-7.07294 L 48.2107,-6.89561  L 48.2855,-6.72266 L 48.3711,-6.55473 L 48.467,-6.39252 L 48.5729,-6.23663 L 48.6885,-6.08772 L 48.8131,-5.94635  L 48.9464,-5.81308 L 49.0877,-5.68845 L 49.2366,-5.57294 L 49.3925,-5.46701 L 49.5547,-5.37108 L 49.7227,-5.28551  L 49.8956,-5.21066 L 50.0729,-5.14682 L 50.2539,-5.09424 L 50.4379,-5.05313 L 50.624,-5.02365 L 50.8116,-5.00591  L 51,-5 L 51,-0 L 56,-0 z M 248,-5 L 263.667,-5 L 263.667,-0 L 268.667,-0 L 268.667,-5 L 279,-5  L 279.188,-5.00591 L 279.376,-5.02365 L 279.562,-5.05313 L 279.746,-5.09424 L 279.927,-5.14682 L 280.104,-5.21066  L 280.277,-5.28551 L 280.445,-5.37108 L 280.607,-5.46701 L 280.763,-5.57294 L 280.912,-5.68845 L 281.054,-5.81308  L 281.187,-5.94635 L 281.312,-6.08772 L 281.427,-6.23663 L 281.533,-6.39252 L 281.629,-6.55473 L 281.714,-6.72266  L 281.789,-6.89561 L 281.853,-7.07294 L 281.906,-7.25392 L 281.947,-7.43785 L 281.976,-7.62399 L 281.994,-7.81161  L 282,-8 L 282,-60 L 281.994,-60.1884 L 281.976,-60.376 L 281.947,-60.5621 L 281.906,-60.7461  L 281.853,-60.927 L 281.789,-61.1044 L 281.714,-61.2773 L 281.629,-61.4453 L 281.533,-61.6075 L 281.427,-61.7634  L 281.312,-61.9123 L 281.187,-62.0536 L 281.054,-62.1869 L 280.912,-62.3115 L 280.763,-62.427 L 280.607,-62.533  L 280.445,-62.6289 L 280.277,-62.7145 L 280.104,-62.7893 L 279.927,-62.8532 L 279.746,-62.9057 L 279.562,-62.9469  L 279.376,-62.9763 L 279.188,-62.9941 L 279,-63 L 243,-63 L 242.812,-62.9941 L 242.624,-62.9763  L 242.438,-62.9469 L 242.254,-62.9057 L 242.073,-62.8532 L 241.896,-62.7893 L 241.723,-62.7145 L 241.555,-62.6289  L 241.393,-62.533 L 241.237,-62.427 L 241.088,-62.3115 L 240.946,-62.1869 L 240.813,-62.0536 L 240.688,-61.9123  L 240.573,-61.7634 L 240.467,-61.6075 L 240.371,-61.4453 L 240.286,-61.2773 L 240.211,-61.1044 L 240.147,-60.927  L 240.094,-60.7461 L 240.053,-60.5621 L 240.024,-60.376 L 240.006,-60.1884 L 240,-60 L 240,-8  L 240.006,-7.81161 L 240.024,-7.62399 L 240.053,-7.43785 L 240.094,-7.25392 L 240.147,-7.07294 L 240.211,-6.89561  L 240.286,-6.72266 L 240.371,-6.55473 L 240.467,-6.39252 L 240.573,-6.23663 L 240.688,-6.08772 L 240.813,-5.94635  L 240.946,-5.81308 L 241.088,-5.68845 L 241.237,-5.57294 L 241.393,-5.46701 L 241.555,-5.37108 L 241.723,-5.28551  L 241.896,-5.21066 L 242.073,-5.14682 L 242.254,-5.09424 L 242.438,-5.05313 L 242.624,-5.02365 L 242.812,-5.00591  L 243,-5 L 243,-0 L 248,-0 z M 320,-5 L 327,-5 L 327.188,-5.00591 L 327.376,-5.02365 L 327.562,-5.05313 L 327.746,-5.09424  L 327.927,-5.14682 L 328.104,-5.21066 L 328.277,-5.28551 L 328.445,-5.37108 L 328.607,-5.46701 L 328.763,-5.57294  L 328.912,-5.68845 L 329.054,-5.81308 L 329.187,-5.94635 L 329.312,-6.08772 L 329.427,-6.23663 L 329.533,-6.39252  L 329.629,-6.55473 L 329.714,-6.72266 L 329.789,-6.89561 L 329.853,-7.07294 L 329.906,-7.25392 L 329.947,-7.43785  L 329.976,-7.62399 L 329.994,-7.81161 L 330,-8 L 330,-60 L 329.994,-60.1884 L 329.976,-60.376  L 329.947,-60.5621 L 329.906,-60.7461 L 329.853,-60.927 L 329.789,-61.1044 L 329.714,-61.2773 L 329.629,-61.4453  L 329.533,-61.6075 L 329.427,-61.7634 L 329.312,-61.9123 L 329.187,-62.0536 L 329.054,-62.1869 L 328.912,-62.3115  L 328.763,-62.427 L 328.607,-62.533 L 328.445,-62.6289 L 328.277,-62.7145 L 328.104,-62.7893 L 327.927,-62.8532  L 327.746,-62.9057 L 327.562,-62.9469 L 327.376,-62.9763 L 327.188,-62.9941 L 327,-63 L 315,-63  L 314.812,-62.9941 L 314.624,-62.9763 L 314.438,-62.9469 L 314.254,-62.9057 L 314.073,-62.8532 L 313.896,-62.7893  L 313.723,-62.7145 L 313.555,-62.6289 L 313.393,-62.533 L 313.237,-62.427 L 313.088,-62.3115 L 312.946,-62.1869  L 312.813,-62.0536 L 312.688,-61.9123 L 312.573,-61.7634 L 312.467,-61.6075 L 312.371,-61.4453 L 312.286,-61.2773  L 312.211,-61.1044 L 312.147,-60.927 L 312.094,-60.7461 L 312.053,-60.5621 L 312.024,-60.376 L 312.006,-60.1884  L 312,-60 L 312,-8 L 312.006,-7.81161 L 312.024,-7.62399 L 312.053,-7.43785 L 312.094,-7.25392  L 312.147,-7.07294 L 312.211,-6.89561 L 312.286,-6.72266 L 312.371,-6.55473 L 312.467,-6.39252 L 312.573,-6.23663  L 312.688,-6.08772 L 312.813,-5.94635 L 312.946,-5.81308 L 313.088,-5.68845 L 313.237,-5.57294 L 313.393,-5.46701  L 313.555,-5.37108 L 313.723,-5.28551 L 313.896,-5.21066 L 314.073,-5.14682 L 314.254,-5.09424 L 314.438,-5.05313  L 314.624,-5.02365 L 314.812,-5.00591 L 315,-5 L 315,-0 L 320,-0 z M 296,-5 L 303,-5 L 303.188,-5.00591 L 303.376,-5.02365 L 303.562,-5.05313 L 303.746,-5.09424  L 303.927,-5.14682 L 304.104,-5.21066 L 304.277,-5.28551 L 304.445,-5.37108 L 304.607,-5.46701 L 304.763,-5.57294  L 304.912,-5.68845 L 305.054,-5.81308 L 305.187,-5.94635 L 305.312,-6.08772 L 305.427,-6.23663 L 305.533,-6.39252  L 305.629,-6.55473 L 305.714,-6.72266 L 305.789,-6.89561 L 305.853,-7.07294 L 305.906,-7.25392 L 305.947,-7.43785  L 305.976,-7.62399 L 305.994,-7.81161 L 306,-8 L 306,-60 L 305.994,-60.1884 L 305.976,-60.376  L 305.947,-60.5621 L 305.906,-60.7461 L 305.853,-60.927 L 305.789,-61.1044 L 305.714,-61.2773 L 305.629,-61.4453  L 305.533,-61.6075 L 305.427,-61.7634 L 305.312,-61.9123 L 305.187,-62.0536 L 305.054,-62.1869 L 304.912,-62.3115  L 304.763,-62.427 L 304.607,-62.533 L 304.445,-62.6289 L 304.277,-62.7145 L 304.104,-62.7893 L 303.927,-62.8532  L 303.746,-62.9057 L 303.562,-62.9469 L 303.376,-62.9763 L 303.188,-62.9941 L 303,-63 L 291,-63  L 290.812,-62.9941 L 290.624,-62.9763 L 290.438,-62.9469 L 290.254,-62.9057 L 290.073,-62.8532 L 289.896,-62.7893  L 289.723,-62.7145 L 289.555,-62.6289 L 289.393,-62.533 L 289.237,-62.427 L 289.088,-62.3115 L 288.946,-62.1869  L 288.813,-62.0536 L 288.688,-61.9123 L 288.573,-61.7634 L 288.467,-61.6075 L 288.371,-61.4453 L 288.286,-61.2773  L 288.211,-61.1044 L 288.147,-60.927 L 288.094,-60.7461 L 288.053,-60.5621 L 288.024,-60.376 L 288.006,-60.1884  L 288,-60 L 288,-8 L 288.006,-7.81161 L 288.024,-7.62399 L 288.053,-7.43785 L 288.094,-7.25392  L 288.147,-7.07294 L 288.211,-6.89561 L 288.286,-6.72266 L 288.371,-6.55473 L 288.467,-6.39252 L 288.573,-6.23663  L 288.688,-6.08772 L 288.813,-5.94635 L 288.946,-5.81308 L 289.088,-5.68845 L 289.237,-5.57294 L 289.393,-5.46701  L 289.555,-5.37108 L 289.723,-5.28551 L 289.896,-5.21066 L 290.073,-5.14682 L 290.254,-5.09424 L 290.438,-5.05313  L 290.624,-5.02365 L 290.812,-5.00591 L 291,-5 L 291,-0 L 296,-0 z "
     stroke="black"
     fill="lightgray"
     stroke-width="0.5"
     id="path6" />
  <g
     style="display:inline"
     id="layer1"
     transform="translate(5.7949958,-127.09147)">
    <!-- SegmentBreite: 33.0 SegmentHoehe: 53.0 DistanzX: 15.0 DistanzY: 15.75 -->
    <g
       id="8">
      <ellipse
         ry="8.9692307"
         rx="7.8913045"
         cy="78.534615"
         cx="15.065217"
         id="81"
         style="fill:none;fill-opacity:1;stroke:#000000;stroke-width:1;stroke-miterlimit:4;stroke-dasharray:none;stroke-opacity:1" />
      <ellipse
         ry="14.676923"
         rx="12.913043"
         cy="102.18077"
         cx="15.065217"
         id="82"
         style="fill:none;fill-opacity:1;stroke:#000000;stroke-width:1;stroke-miterlimit:4;stroke-dasharray:none;stroke-opacity:1" />
    </g>
    <g
       id="9">
      <ellipse
         ry="14.676923"
         rx="12.913043"
         cy="15.492308"
         cx="15.065217"
         id="91"
         style="fill:none;fill-opacity:1;stroke:#000000;stroke-width:1;stroke-miterlimit:4;stroke-dasharray:none;stroke-opacity:1" />
      <path
         d="M 25.108696,24.461538 15.065217,46.476923"
         id="92"
         style="fill:none;fill-rule:evenodd;stroke:#000000;stroke-width:1px;stroke-linecap:butt;stroke-linejoin:miter;stroke-opacity:1"
         inkscape:connector-curvature="0" />
    </g>
    <ellipse
       ry="23.646154"
       rx="14.347826"
       cy="92.396156"
       cx="63.065216"
       id="0"
       style="fill:none;fill-opacity:1;stroke:#000000;stroke-width:1;stroke-miterlimit:4;stroke-dasharray:none;stroke-opacity:1" />
    <path
       d="M 62.347826,0 62.347826,48.923077"
       id="1"
       style="fill:none;fill-rule:evenodd;stroke:#000000;stroke-width:1px;stroke-linecap:butt;stroke-linejoin:miter;stroke-opacity:1"
       inkscape:connector-curvature="0" />
    <path
       d="M 96,83.973231 C 100.77783,64.673077 116.9263,67.119231 122.73,75.811231 128.04587,84.234154 125.18348,93.439846 113.81283,93.668154 96.538043,95.135846 96,116.85769 96,116.85769 L 124.69565,116.85769"
       id="2"
       style="fill:none;fill-rule:evenodd;stroke:#000000;stroke-width:1px;stroke-linecap:butt;stroke-linejoin:miter;stroke-opacity:1"
       inkscape:connector-curvature="0" />
    <path
       d="M 96,0.40769231 125.25522,0.53 115.67087,16.356615 C 138.18261,30.120308 115.12565,61.382154 99.50087,42.326615"
       id="3"
       style="fill:none;fill-rule:evenodd;stroke:#000000;stroke-width:1px;stroke-linecap:butt;stroke-linejoin:miter;stroke-opacity:1"
       inkscape:connector-curvature="0" />
    <path
       d="M 162.46565,116.37662 162.46565,68.75 144,101.67523 173.46326,101.74862"
       id="4"
       style="fill:none;fill-rule:evenodd;stroke:#000000;stroke-width:1px;stroke-linecap:butt;stroke-linejoin:miter;stroke-opacity:1"
       inkscape:connector-curvature="0" />
    <path
       d="M 170.09152,0.40769231 144,0.40769231 144,23.890769 C 158.16848,10.567385 169.96239,20.767846 169.89783,33.137231 169.83326,45.620769 155.42804,55.397231 144,39.048769"
       id="5"
       style="fill:none;fill-rule:evenodd;stroke:#000000;stroke-width:1px;stroke-linecap:butt;stroke-linejoin:miter;stroke-opacity:1"
       inkscape:connector-curvature="0" />
    <g
       id="6">
      <ellipse
         ry="14.676923"
         rx="12.913043"
         cy="102.18077"
         cx="207.06522"
         id="61"
         style="fill:none;fill-opacity:1;stroke:#000000;stroke-width:1;stroke-miterlimit:4;stroke-dasharray:none;stroke-opacity:1" />
      <path
         d="M 196.30435,94.026923 207.06522,70.380769"
         id="62"
         style="fill:none;fill-rule:evenodd;stroke:#000000;stroke-width:1px;stroke-linecap:butt;stroke-linejoin:miter;stroke-opacity:1"
         inkscape:connector-curvature="0" />
    </g>
    <path
       d="M 192,0.40769231 221.59239,0.40769231 206.73522,47.398308"
       id="7"
       style="fill:none;fill-rule:evenodd;stroke:#000000;stroke-width:1px;stroke-linecap:butt;stroke-linejoin:miter;stroke-opacity:1"
       inkscape:connector-curvature="0" />
    <g
       id="g4159">
      <ellipse
         ry="8.9692307"
         rx="7.8913045"
         cy="78.534615"
         cx="255.06522"
         id="ellipse4161"
         style="fill:none;fill-opacity:1;stroke:#000000;stroke-width:1;stroke-miterlimit:4;stroke-dasharray:none;stroke-opacity:1" />
      <ellipse
         ry="14.676923"
         rx="12.913043"
         cy="102.18077"
         cx="255.06522"
         id="ellipse4163"
         style="fill:none;fill-opacity:1;stroke:#000000;stroke-width:1;stroke-miterlimit:4;stroke-dasharray:none;stroke-opacity:1" />
    </g>
    <g
       id="g4165">
      <ellipse
         ry="14.676923"
         rx="12.913043"
         cy="15.492308"
         cx="255.06522"
         id="ellipse4167"
         style="fill:none;fill-opacity:1;stroke:#000000;stroke-width:1;stroke-miterlimit:4;stroke-dasharray:none;stroke-opacity:1" />
      <path
         d="M 265.1087,24.461538 255.06522,46.476923"
         id="path4169"
         style="fill:none;fill-rule:evenodd;stroke:#000000;stroke-width:1px;stroke-linecap:butt;stroke-linejoin:miter;stroke-opacity:1"
         inkscape:connector-curvature="0" />
    </g>
  </g>
  <path
     id="path4204"
     d="M 321.602,-118.20936 321.883,-118.23536 322.162,-118.28036 322.438,-118.34136 322.71,-118.42036 322.976,-118.51636 323.235,-118.62836 323.487,-118.75736 323.73,-118.90136 323.964,-119.05936 324.187,-119.23336 324.399,-119.42036 324.599,-119.62036 324.786,-119.83236 324.96,-120.05536 325.118,-120.28936 325.262,-120.53236 325.391,-120.78436 325.503,-121.04336 325.599,-121.30936 325.678,-121.58136 325.739,-121.85736 325.784,-122.13636 325.81,-122.41736 325.819,-122.70036 325.81,-122.98336 325.784,-123.26436 325.739,-123.54336 325.678,-123.81936 325.599,-124.09136 325.503,-124.35736 325.391,-124.61636 325.262,-124.86836 325.118,-125.11136 324.96,-125.34536 324.786,-125.56836 324.599,-125.78036 324.399,-125.98036 324.187,-126.16736 323.964,-126.34136 323.73,-126.49936 323.487,-126.64336 323.235,-126.77236 322.976,-126.88436 322.71,-126.98036 322.438,-127.05936 322.162,-127.12036 321.883,-127.16536 321.602,-127.19136 321.319,-127.20036 321.036,-127.19136 320.755,-127.16536 320.476,-127.12036 320.2,-127.05936 319.928,-126.98036 319.662,-126.88436 319.403,-126.77236 319.151,-126.64336 318.908,-126.49936 318.674,-126.34136 318.451,-126.16736 318.239,-125.98036 318.039,-125.78036 317.852,-125.56836 317.678,-125.34536 317.52,-125.11136 317.376,-124.86836 317.247,-124.61636 317.135,-124.35736 317.039,-124.09136 316.96,-123.81936 316.899,-123.54336 316.854,-123.26436 316.828,-122.98336 316.819,-122.70036 316.828,-122.41736 316.854,-122.13636 316.899,-121.85736 316.96,-121.58136 317.039,-121.30936 317.135,-121.04336 317.247,-120.78436 317.376,-120.53236 317.52,-120.28936 317.678,-120.05536 317.852,-119.83236 318.039,-119.62036 318.239,-119.42036 318.451,-119.23336 318.674,-119.05936 318.908,-118.90136 319.151,-118.75736 319.403,-118.62836 319.662,-118.51636 319.928,-118.42036 320.2,-118.34136 320.476,-118.28036 320.755,-118.23536 321.036,-118.20936 321.319,-118.20036 Z M 297.60199,-91.409262 297.883,-91.435862 298.162,-91.480062 298.438,-91.541762 298.71,-91.620562 298.976,-91.716362 299.235,-91.828662 299.487,-91.956962 299.73,-92.100862 299.964,-92.259762 300.187,-92.433062 300.399,-92.619962 300.599,-92.819862 300.786,-93.031962 300.96,-93.255362 301.118,-93.489162 301.262,-93.732462 301.391,-93.984362 301.503,-94.243762 301.599,-94.509762 301.678,-94.781262 301.739,-95.057162 301.784,-95.336362 301.81,-95.617762 301.819,-95.900362 301.81,-96.182962 301.784,-96.464362 301.739,-96.743562 301.678,-97.019462 301.599,-97.290962 301.503,-97.556962 301.391,-97.816362 301.262,-98.068262 301.118,-98.311562 300.96,-98.545362 300.786,-98.768762 300.599,-98.980762 300.399,-99.180762 300.187,-99.367662 299.964,-99.540962 299.73,-99.699362 299.487,-99.843362 299.235,-99.972362 298.976,-100.08436 298.71,-100.18036 298.438,-100.25936 298.162,-100.32036 297.883,-100.36536 297.60199,-100.39136 297.31899,-100.40036 297.03599,-100.39136 296.75499,-100.36536 296.47599,-100.32036 296.19999,-100.25936 295.92799,-100.18036 295.66199,-100.08436 295.40299,-99.972362 295.15099,-99.843362 294.90799,-99.699362 294.67399,-99.540962 294.45099,-99.367662 294.23899,-99.180762 294.03899,-98.980762 293.85199,-98.768762 293.67799,-98.545362 293.51999,-98.311562 293.37599,-98.068262 293.24699,-97.816362 293.13499,-97.556962 293.03899,-97.290962 292.95999,-97.019462 292.89899,-96.743562 292.85399,-96.464362 292.82799,-96.182962 292.81899,-95.900362 292.82799,-95.617762 292.85399,-95.336362 292.89899,-95.057162 292.95999,-94.781262 293.03899,-94.509762 293.13499,-94.243762 293.24699,-93.984362 293.37599,-93.732462 293.51999,-93.489162 293.67799,-93.255362 293.85199,-93.031962 294.03899,-92.819862 294.23899,-92.619962 294.45099,-92.433062 294.67399,-92.259762 294.90799,-92.100862 295.15099,-91.956962 295.40299,-91.828662 295.66199,-91.716362 295.92799,-91.620562 296.19999,-91.541762 296.47599,-91.480062 296.75499,-91.435862 297.03599,-91.409262 297.31899,-91.400362 Z M 321.602,-35.809262 321.883,-35.835862 322.162,-35.880062 322.438,-35.941762 322.71,-36.020562 322.976,-36.116362 323.235,-36.228662 323.487,-36.356962 323.73,-36.500862 323.964,-36.659762 324.187,-36.833062 324.399,-37.019962 324.599,-37.219862 324.786,-37.431962 324.96,-37.655362 325.118,-37.889162 325.262,-38.132462 325.391,-38.384362 325.503,-38.643762 325.599,-38.909762 325.678,-39.181262 325.739,-39.457162 325.784,-39.736362 325.81,-40.017762 325.819,-40.300362 325.81,-40.582862 325.784,-40.864362 325.739,-41.143562 325.678,-41.419462 325.599,-41.690962 325.503,-41.956962 325.391,-42.216362 325.262,-42.468262 325.118,-42.711562 324.96,-42.945362 324.786,-43.168762 324.599,-43.380862 324.399,-43.580662 324.187,-43.767662 323.964,-43.940962 323.73,-44.099862 323.487,-44.243762 323.235,-44.372062 322.976,-44.484362 322.71,-44.580162 322.438,-44.658962 322.162,-44.720662 321.883,-44.764862 321.602,-44.791462 321.319,-44.800362 321.036,-44.791462 320.755,-44.764862 320.476,-44.720662 320.2,-44.658962 319.928,-44.580162 319.662,-44.484362 319.403,-44.372062 319.151,-44.243762 318.908,-44.099862 318.674,-43.940962 318.451,-43.767662 318.239,-43.580662 318.039,-43.380862 317.852,-43.168762 317.678,-42.945362 317.52,-42.711562 317.376,-42.468262 317.247,-42.216362 317.135,-41.956962 317.039,-41.690962 316.96,-41.419462 316.899,-41.143562 316.854,-40.864362 316.828,-40.582862 316.819,-40.300362 316.828,-40.017762 316.854,-39.736362 316.899,-39.457162 316.96,-39.181262 317.039,-38.909762 317.135,-38.643762 317.247,-38.384362 317.376,-38.132462 317.52,-37.889162 317.678,-37.655362 317.852,-37.431962 318.039,-37.219862 318.239,-37.019962 318.451,-36.833062 318.674,-36.659762 318.908,-36.500862 319.151,-36.356962 319.403,-36.228662 319.662,-36.116362 319.928,-36.020562 320.2,-35.941762 320.476,-35.880062 320.755,-35.835862 321.036,-35.809262 321.319,-35.800362 Z M 297.60199,-9.0092321 297.883,-9.0358321 298.162,-9.0800721 298.438,-9.1417321 298.71,-9.2206021 298.976,-9.3163621 299.235,-9.4286421 299.487,-9.5569821 299.73,-9.7008621 299.964,-9.8597621 300.187,-10.033062 300.399,-10.219962 300.599,-10.419862 300.786,-10.631962 300.96,-10.855362 301.118,-11.089162 301.262,-11.332462 301.391,-11.584362 301.503,-11.843762 301.599,-12.109762 301.678,-12.381262 301.739,-12.657162 301.784,-12.936362 301.81,-13.217762 301.819,-13.500362 301.81,-13.782962 301.784,-14.064362 301.739,-14.343562 301.678,-14.619462 301.599,-14.890962 301.503,-15.156862 301.391,-15.416362 301.262,-15.668262 301.118,-15.911562 300.96,-16.145362 300.786,-16.368762 300.599,-16.580862 300.399,-16.780662 300.187,-16.967662 299.964,-17.140962 299.73,-17.299862 299.487,-17.443762 299.235,-17.572062 298.976,-17.684362 298.71,-17.780062 298.438,-17.858962 298.162,-17.920662 297.883,-17.964862 297.60199,-17.991462 297.31899,-18.000362 297.03599,-17.991462 296.75499,-17.964862 296.47599,-17.920662 296.19999,-17.858962 295.92799,-17.780062 295.66199,-17.684362 295.40299,-17.572062 295.15099,-17.443762 294.90799,-17.299862 294.67399,-17.140962 294.45099,-16.967662 294.23899,-16.780662 294.03899,-16.580862 293.85199,-16.368762 293.67799,-16.145362 293.51999,-15.911562 293.37599,-15.668262 293.24699,-15.416362 293.13499,-15.156862 293.03899,-14.890962 292.95999,-14.619462 292.89899,-14.343562 292.85399,-14.064362 292.82799,-13.782962 292.81899,-13.500362 292.82799,-13.217762 292.85399,-12.936362 292.89899,-12.657162 292.95999,-12.381262 293.03899,-12.109762 293.13499,-11.843762 293.24699,-11.584362 293.37599,-11.332462 293.51999,-11.089162 293.67799,-10.855362 293.85199,-10.631962 294.03899,-10.419862 294.23899,-10.219962 294.45099,-10.033062 294.67399,-9.8597621 294.90799,-9.7008621 295.15099,-9.5569821 295.40299,-9.4286421 295.66199,-9.3163621 295.92799,-9.2206021 296.19999,-9.1417321 296.47599,-9.0800721 296.75499,-9.0358321 297.03599,-9.0092321 297.31899,-9.0003521 Z"
     inkscape:connector-curvature="0"
     style="fill:#d3d3d3;stroke:#000000;stroke-width:0.5" />
</svg>
